<mxfile host="app.diagrams.net" modified="2021-09-27T13:19:18.694Z" agent="5.0 (Windows NT 10.0; Win64; x64) AppleWebKit/537.36 (KHTML, like Gecko) Chrome/93.0.4577.82 Safari/537.36" etag="968GC2QM6S_XrDjeBRyG" version="15.3.5" type="github">
  <diagram id="f9oqJ0iMxoFhyCL9xdmT" name="Page-1">
    <mxGraphModel dx="1276" dy="571" grid="1" gridSize="10" guides="1" tooltips="1" connect="1" arrows="1" fold="1" page="1" pageScale="1" pageWidth="850" pageHeight="1100" math="0" shadow="0">
      <root>
        <mxCell id="0" />
        <mxCell id="1" parent="0" />
        <mxCell id="ZJoX1B9LX1jRKsgwEXMT-70" value="" style="rounded=0;whiteSpace=wrap;html=1;strokeColor=#000000;fillColor=#CCCCCC;" parent="1" vertex="1">
          <mxGeometry x="10" y="20" width="780" height="60" as="geometry" />
        </mxCell>
        <mxCell id="ZJoX1B9LX1jRKsgwEXMT-69" value="" style="whiteSpace=wrap;html=1;aspect=fixed;strokeColor=#d79b00;fillColor=#ffe6cc;" parent="1" vertex="1">
          <mxGeometry x="10" y="80" width="780" height="780" as="geometry" />
        </mxCell>
        <mxCell id="ZJoX1B9LX1jRKsgwEXMT-1" value="&lt;b&gt;&lt;font style=&quot;font-size: 14px&quot;&gt;USER&lt;/font&gt;&lt;/b&gt;" style="text;html=1;align=center;verticalAlign=middle;resizable=0;points=[];autosize=1;strokeColor=none;" parent="1" vertex="1">
          <mxGeometry x="215" y="40" width="50" height="20" as="geometry" />
        </mxCell>
        <mxCell id="ZJoX1B9LX1jRKsgwEXMT-2" value="&lt;b&gt;&lt;font style=&quot;font-size: 14px&quot;&gt;SYSTEM&lt;/font&gt;&lt;/b&gt;" style="text;html=1;align=center;verticalAlign=middle;resizable=0;points=[];autosize=1;strokeColor=none;" parent="1" vertex="1">
          <mxGeometry x="625" y="40" width="70" height="20" as="geometry" />
        </mxCell>
        <mxCell id="ZJoX1B9LX1jRKsgwEXMT-3" value="" style="endArrow=classic;html=1;" parent="1" edge="1">
          <mxGeometry width="50" height="50" relative="1" as="geometry">
            <mxPoint x="240" y="80" as="sourcePoint" />
            <mxPoint x="240" y="110" as="targetPoint" />
          </mxGeometry>
        </mxCell>
        <mxCell id="ZJoX1B9LX1jRKsgwEXMT-4" value="" style="shape=line;html=1;strokeWidth=6;direction=south;rotation=90;" parent="1" vertex="1">
          <mxGeometry x="235" y="-105" width="10" height="430" as="geometry" />
        </mxCell>
        <mxCell id="ZJoX1B9LX1jRKsgwEXMT-6" value="" style="endArrow=classic;html=1;exitX=1;exitY=0.5;exitDx=0;exitDy=0;exitPerimeter=0;" parent="1" edge="1">
          <mxGeometry width="50" height="50" relative="1" as="geometry">
            <mxPoint x="87" y="109" as="sourcePoint" />
            <mxPoint x="87" y="129" as="targetPoint" />
          </mxGeometry>
        </mxCell>
        <mxCell id="ZJoX1B9LX1jRKsgwEXMT-7" value="" style="endArrow=classic;html=1;exitX=1;exitY=0.5;exitDx=0;exitDy=0;exitPerimeter=0;" parent="1" edge="1">
          <mxGeometry width="50" height="50" relative="1" as="geometry">
            <mxPoint x="200" y="110" as="sourcePoint" />
            <mxPoint x="200" y="130" as="targetPoint" />
          </mxGeometry>
        </mxCell>
        <mxCell id="ZJoX1B9LX1jRKsgwEXMT-8" value="See Schedule&amp;nbsp; Info" style="ellipse;whiteSpace=wrap;html=1;strokeColor=#000000;" parent="1" vertex="1">
          <mxGeometry x="47" y="130" width="80" height="40" as="geometry" />
        </mxCell>
        <mxCell id="ZJoX1B9LX1jRKsgwEXMT-9" value="" style="endArrow=classic;html=1;exitX=1;exitY=0.5;exitDx=0;exitDy=0;exitPerimeter=0;" parent="1" edge="1">
          <mxGeometry width="50" height="50" relative="1" as="geometry">
            <mxPoint x="89.5" y="170" as="sourcePoint" />
            <mxPoint x="89.5" y="190" as="targetPoint" />
          </mxGeometry>
        </mxCell>
        <mxCell id="ZJoX1B9LX1jRKsgwEXMT-10" value="Click on Regular Trip Info" style="ellipse;whiteSpace=wrap;html=1;strokeColor=#000000;" parent="1" vertex="1">
          <mxGeometry x="50" y="190" width="80" height="40" as="geometry" />
        </mxCell>
        <mxCell id="ZJoX1B9LX1jRKsgwEXMT-11" value="" style="shape=line;html=1;strokeWidth=6;direction=south;rotation=90;" parent="1" vertex="1">
          <mxGeometry x="215" y="75" width="10" height="360" as="geometry" />
        </mxCell>
        <mxCell id="ZJoX1B9LX1jRKsgwEXMT-12" value="" style="endArrow=classic;html=1;exitX=1;exitY=0.5;exitDx=0;exitDy=0;exitPerimeter=0;" parent="1" edge="1">
          <mxGeometry width="50" height="50" relative="1" as="geometry">
            <mxPoint x="89.5" y="232" as="sourcePoint" />
            <mxPoint x="89.5" y="252" as="targetPoint" />
          </mxGeometry>
        </mxCell>
        <mxCell id="ZJoX1B9LX1jRKsgwEXMT-13" value="" style="endArrow=classic;html=1;exitX=1;exitY=0.5;exitDx=0;exitDy=0;exitPerimeter=0;" parent="1" edge="1">
          <mxGeometry width="50" height="50" relative="1" as="geometry">
            <mxPoint x="46" y="253" as="sourcePoint" />
            <mxPoint x="46" y="273" as="targetPoint" />
          </mxGeometry>
        </mxCell>
        <mxCell id="ZJoX1B9LX1jRKsgwEXMT-14" value="Date" style="ellipse;whiteSpace=wrap;html=1;strokeColor=#000000;" parent="1" vertex="1">
          <mxGeometry x="20" y="272" width="50" height="38" as="geometry" />
        </mxCell>
        <mxCell id="ZJoX1B9LX1jRKsgwEXMT-15" value="" style="endArrow=classic;html=1;exitX=1;exitY=0.5;exitDx=0;exitDy=0;exitPerimeter=0;" parent="1" edge="1">
          <mxGeometry width="50" height="50" relative="1" as="geometry">
            <mxPoint x="100" y="255" as="sourcePoint" />
            <mxPoint x="100" y="275" as="targetPoint" />
          </mxGeometry>
        </mxCell>
        <mxCell id="ZJoX1B9LX1jRKsgwEXMT-16" value="Pickup&lt;br&gt;Time" style="ellipse;whiteSpace=wrap;html=1;strokeColor=#000000;" parent="1" vertex="1">
          <mxGeometry x="75" y="273" width="50" height="37" as="geometry" />
        </mxCell>
        <mxCell id="ZJoX1B9LX1jRKsgwEXMT-17" value="" style="endArrow=classic;html=1;exitX=1;exitY=0.5;exitDx=0;exitDy=0;exitPerimeter=0;" parent="1" edge="1">
          <mxGeometry width="50" height="50" relative="1" as="geometry">
            <mxPoint x="160" y="253" as="sourcePoint" />
            <mxPoint x="160" y="273" as="targetPoint" />
          </mxGeometry>
        </mxCell>
        <mxCell id="ZJoX1B9LX1jRKsgwEXMT-18" value="Drop&lt;br&gt;Time" style="ellipse;whiteSpace=wrap;html=1;strokeColor=#000000;" parent="1" vertex="1">
          <mxGeometry x="130" y="273" width="60" height="37" as="geometry" />
        </mxCell>
        <mxCell id="ZJoX1B9LX1jRKsgwEXMT-19" value="" style="endArrow=classic;html=1;exitX=1;exitY=0.5;exitDx=0;exitDy=0;exitPerimeter=0;" parent="1" edge="1">
          <mxGeometry width="50" height="50" relative="1" as="geometry">
            <mxPoint x="230" y="253" as="sourcePoint" />
            <mxPoint x="230" y="273" as="targetPoint" />
          </mxGeometry>
        </mxCell>
        <mxCell id="ZJoX1B9LX1jRKsgwEXMT-20" value="Location&lt;br&gt;From" style="ellipse;whiteSpace=wrap;html=1;strokeColor=#000000;" parent="1" vertex="1">
          <mxGeometry x="200" y="273" width="70" height="37" as="geometry" />
        </mxCell>
        <mxCell id="ZJoX1B9LX1jRKsgwEXMT-21" value="" style="endArrow=classic;html=1;exitX=1;exitY=0.5;exitDx=0;exitDy=0;exitPerimeter=0;" parent="1" edge="1">
          <mxGeometry width="50" height="50" relative="1" as="geometry">
            <mxPoint x="305" y="253" as="sourcePoint" />
            <mxPoint x="305" y="273" as="targetPoint" />
          </mxGeometry>
        </mxCell>
        <mxCell id="ZJoX1B9LX1jRKsgwEXMT-22" value="Location&lt;br&gt;To" style="ellipse;whiteSpace=wrap;html=1;strokeColor=#000000;" parent="1" vertex="1">
          <mxGeometry x="274" y="273" width="70" height="37" as="geometry" />
        </mxCell>
        <mxCell id="ZJoX1B9LX1jRKsgwEXMT-23" value="" style="endArrow=classic;html=1;exitX=1;exitY=0.5;exitDx=0;exitDy=0;exitPerimeter=0;" parent="1" edge="1">
          <mxGeometry width="50" height="50" relative="1" as="geometry">
            <mxPoint x="44.5" y="310" as="sourcePoint" />
            <mxPoint x="44.5" y="330" as="targetPoint" />
          </mxGeometry>
        </mxCell>
        <mxCell id="ZJoX1B9LX1jRKsgwEXMT-24" value="" style="endArrow=classic;html=1;exitX=1;exitY=0.5;exitDx=0;exitDy=0;exitPerimeter=0;" parent="1" edge="1">
          <mxGeometry width="50" height="50" relative="1" as="geometry">
            <mxPoint x="99.5" y="310" as="sourcePoint" />
            <mxPoint x="99.5" y="330" as="targetPoint" />
          </mxGeometry>
        </mxCell>
        <mxCell id="ZJoX1B9LX1jRKsgwEXMT-25" value="" style="endArrow=classic;html=1;exitX=1;exitY=0.5;exitDx=0;exitDy=0;exitPerimeter=0;" parent="1" edge="1">
          <mxGeometry width="50" height="50" relative="1" as="geometry">
            <mxPoint x="159.5" y="310" as="sourcePoint" />
            <mxPoint x="159.5" y="330" as="targetPoint" />
          </mxGeometry>
        </mxCell>
        <mxCell id="ZJoX1B9LX1jRKsgwEXMT-26" value="" style="endArrow=classic;html=1;exitX=1;exitY=0.5;exitDx=0;exitDy=0;exitPerimeter=0;" parent="1" edge="1">
          <mxGeometry width="50" height="50" relative="1" as="geometry">
            <mxPoint x="234.5" y="310" as="sourcePoint" />
            <mxPoint x="234.5" y="330" as="targetPoint" />
          </mxGeometry>
        </mxCell>
        <mxCell id="ZJoX1B9LX1jRKsgwEXMT-27" value="" style="endArrow=classic;html=1;exitX=1;exitY=0.5;exitDx=0;exitDy=0;exitPerimeter=0;" parent="1" edge="1">
          <mxGeometry width="50" height="50" relative="1" as="geometry">
            <mxPoint x="308.5" y="310" as="sourcePoint" />
            <mxPoint x="308.5" y="330" as="targetPoint" />
          </mxGeometry>
        </mxCell>
        <mxCell id="ZJoX1B9LX1jRKsgwEXMT-28" value="" style="shape=line;html=1;strokeWidth=6;direction=south;rotation=90;" parent="1" vertex="1">
          <mxGeometry x="217.5" y="152.5" width="10" height="365" as="geometry" />
        </mxCell>
        <mxCell id="ZJoX1B9LX1jRKsgwEXMT-29" value="" style="endArrow=classic;html=1;exitX=1;exitY=0.5;exitDx=0;exitDy=0;exitPerimeter=0;" parent="1" edge="1">
          <mxGeometry width="50" height="50" relative="1" as="geometry">
            <mxPoint x="159.5" y="330" as="sourcePoint" />
            <mxPoint x="50" y="602" as="targetPoint" />
            <Array as="points">
              <mxPoint x="160" y="360" />
              <mxPoint x="50" y="360" />
            </Array>
          </mxGeometry>
        </mxCell>
        <mxCell id="ZJoX1B9LX1jRKsgwEXMT-30" value="&amp;nbsp;See Transport Info" style="ellipse;whiteSpace=wrap;html=1;strokeColor=#000000;" parent="1" vertex="1">
          <mxGeometry x="155" y="130" width="90" height="40" as="geometry" />
        </mxCell>
        <mxCell id="ZJoX1B9LX1jRKsgwEXMT-31" value="" style="endArrow=classic;html=1;exitX=0.5;exitY=1;exitDx=0;exitDy=0;" parent="1" source="ZJoX1B9LX1jRKsgwEXMT-30" edge="1">
          <mxGeometry width="50" height="50" relative="1" as="geometry">
            <mxPoint x="400" y="230" as="sourcePoint" />
            <mxPoint x="600" y="240" as="targetPoint" />
            <Array as="points">
              <mxPoint x="200" y="240" />
            </Array>
          </mxGeometry>
        </mxCell>
        <mxCell id="ZJoX1B9LX1jRKsgwEXMT-32" value="Show Transport Info" style="ellipse;whiteSpace=wrap;html=1;strokeColor=#000000;" parent="1" vertex="1">
          <mxGeometry x="600" y="220" width="90" height="40" as="geometry" />
        </mxCell>
        <mxCell id="ZJoX1B9LX1jRKsgwEXMT-33" value="" style="endArrow=classic;html=1;" parent="1" edge="1">
          <mxGeometry width="50" height="50" relative="1" as="geometry">
            <mxPoint x="644" y="260" as="sourcePoint" />
            <mxPoint x="644" y="275" as="targetPoint" />
          </mxGeometry>
        </mxCell>
        <mxCell id="ZJoX1B9LX1jRKsgwEXMT-34" value="" style="shape=line;html=1;strokeWidth=6;direction=south;rotation=90;" parent="1" vertex="1">
          <mxGeometry x="645" y="240" width="10" height="80" as="geometry" />
        </mxCell>
        <mxCell id="ZJoX1B9LX1jRKsgwEXMT-35" value="" style="endArrow=classic;html=1;exitX=1;exitY=0.5;exitDx=0;exitDy=0;exitPerimeter=0;" parent="1" edge="1">
          <mxGeometry width="50" height="50" relative="1" as="geometry">
            <mxPoint x="614.5" y="280" as="sourcePoint" />
            <mxPoint x="614.5" y="300" as="targetPoint" />
          </mxGeometry>
        </mxCell>
        <mxCell id="ZJoX1B9LX1jRKsgwEXMT-36" value="Type" style="ellipse;whiteSpace=wrap;html=1;strokeColor=#000000;" parent="1" vertex="1">
          <mxGeometry x="590" y="300" width="50" height="25" as="geometry" />
        </mxCell>
        <mxCell id="ZJoX1B9LX1jRKsgwEXMT-37" value="" style="endArrow=classic;html=1;exitX=1;exitY=0.5;exitDx=0;exitDy=0;exitPerimeter=0;" parent="1" edge="1">
          <mxGeometry width="50" height="50" relative="1" as="geometry">
            <mxPoint x="679.5" y="280" as="sourcePoint" />
            <mxPoint x="679.5" y="300" as="targetPoint" />
          </mxGeometry>
        </mxCell>
        <mxCell id="ZJoX1B9LX1jRKsgwEXMT-38" value="Number" style="ellipse;whiteSpace=wrap;html=1;strokeColor=#000000;" parent="1" vertex="1">
          <mxGeometry x="655" y="300" width="50" height="25" as="geometry" />
        </mxCell>
        <mxCell id="ZJoX1B9LX1jRKsgwEXMT-39" value="" style="endArrow=classic;html=1;exitX=1;exitY=0.5;exitDx=0;exitDy=0;exitPerimeter=0;" parent="1" edge="1">
          <mxGeometry width="50" height="50" relative="1" as="geometry">
            <mxPoint x="614.5" y="330" as="sourcePoint" />
            <mxPoint x="614.5" y="350" as="targetPoint" />
          </mxGeometry>
        </mxCell>
        <mxCell id="ZJoX1B9LX1jRKsgwEXMT-40" value="" style="endArrow=classic;html=1;exitX=1;exitY=0.5;exitDx=0;exitDy=0;exitPerimeter=0;" parent="1" edge="1">
          <mxGeometry width="50" height="50" relative="1" as="geometry">
            <mxPoint x="684.5" y="330" as="sourcePoint" />
            <mxPoint x="684.5" y="350" as="targetPoint" />
          </mxGeometry>
        </mxCell>
        <mxCell id="ZJoX1B9LX1jRKsgwEXMT-41" value="" style="shape=line;html=1;strokeWidth=6;direction=south;rotation=90;" parent="1" vertex="1">
          <mxGeometry x="695" y="437" width="10" height="87" as="geometry" />
        </mxCell>
        <mxCell id="ZJoX1B9LX1jRKsgwEXMT-42" value="" style="endArrow=classic;html=1;" parent="1" edge="1">
          <mxGeometry width="50" height="50" relative="1" as="geometry">
            <mxPoint x="657" y="360" as="sourcePoint" />
            <mxPoint x="80" y="600" as="targetPoint" />
            <Array as="points">
              <mxPoint x="657" y="370" />
              <mxPoint x="80" y="370" />
            </Array>
          </mxGeometry>
        </mxCell>
        <mxCell id="ZJoX1B9LX1jRKsgwEXMT-43" value="" style="endArrow=classic;html=1;exitX=1;exitY=0.5;exitDx=0;exitDy=0;exitPerimeter=0;entryX=0.5;entryY=0;entryDx=0;entryDy=0;" parent="1" target="ZJoX1B9LX1jRKsgwEXMT-44" edge="1">
          <mxGeometry width="50" height="50" relative="1" as="geometry">
            <mxPoint x="299.5" y="110" as="sourcePoint" />
            <mxPoint x="299.5" y="130" as="targetPoint" />
          </mxGeometry>
        </mxCell>
        <mxCell id="ZJoX1B9LX1jRKsgwEXMT-44" value="Get Notification About Urgent Trip" style="ellipse;whiteSpace=wrap;html=1;strokeColor=#000000;" parent="1" vertex="1">
          <mxGeometry x="247" y="182" width="106" height="50" as="geometry" />
        </mxCell>
        <mxCell id="ZJoX1B9LX1jRKsgwEXMT-45" value="" style="endArrow=classic;html=1;exitX=0.981;exitY=0.64;exitDx=0;exitDy=0;exitPerimeter=0;" parent="1" edge="1">
          <mxGeometry width="50" height="50" relative="1" as="geometry">
            <mxPoint x="352.9960000000001" y="206.5" as="sourcePoint" />
            <mxPoint x="375.01" y="206.5" as="targetPoint" />
          </mxGeometry>
        </mxCell>
        <mxCell id="ZJoX1B9LX1jRKsgwEXMT-46" value="Click on That" style="ellipse;whiteSpace=wrap;html=1;strokeColor=#000000;" parent="1" vertex="1">
          <mxGeometry x="376" y="188.5" width="70" height="37" as="geometry" />
        </mxCell>
        <mxCell id="ZJoX1B9LX1jRKsgwEXMT-47" value="" style="endArrow=classic;html=1;exitX=1;exitY=0.5;exitDx=0;exitDy=0;" parent="1" source="ZJoX1B9LX1jRKsgwEXMT-46" edge="1">
          <mxGeometry width="50" height="50" relative="1" as="geometry">
            <mxPoint x="400" y="330" as="sourcePoint" />
            <mxPoint x="720" y="400" as="targetPoint" />
            <Array as="points">
              <mxPoint x="720" y="207" />
            </Array>
          </mxGeometry>
        </mxCell>
        <mxCell id="ZJoX1B9LX1jRKsgwEXMT-48" value="" style="endArrow=classic;html=1;exitX=1;exitY=0.5;exitDx=0;exitDy=0;exitPerimeter=0;" parent="1" edge="1">
          <mxGeometry width="50" height="50" relative="1" as="geometry">
            <mxPoint x="660" y="400" as="sourcePoint" />
            <mxPoint x="660" y="420" as="targetPoint" />
          </mxGeometry>
        </mxCell>
        <mxCell id="ZJoX1B9LX1jRKsgwEXMT-49" value="" style="endArrow=classic;html=1;exitX=1;exitY=0.5;exitDx=0;exitDy=0;exitPerimeter=0;" parent="1" edge="1">
          <mxGeometry width="50" height="50" relative="1" as="geometry">
            <mxPoint x="740" y="400" as="sourcePoint" />
            <mxPoint x="740" y="420" as="targetPoint" />
          </mxGeometry>
        </mxCell>
        <mxCell id="ZJoX1B9LX1jRKsgwEXMT-50" value="Show Time" style="ellipse;whiteSpace=wrap;html=1;strokeColor=#000000;" parent="1" vertex="1">
          <mxGeometry x="640" y="420" width="50" height="37" as="geometry" />
        </mxCell>
        <mxCell id="ZJoX1B9LX1jRKsgwEXMT-51" value="Show Location" style="ellipse;whiteSpace=wrap;html=1;strokeColor=#000000;" parent="1" vertex="1">
          <mxGeometry x="694" y="420" width="60" height="37" as="geometry" />
        </mxCell>
        <mxCell id="ZJoX1B9LX1jRKsgwEXMT-52" value="" style="endArrow=classic;html=1;exitX=1;exitY=0.5;exitDx=0;exitDy=0;exitPerimeter=0;" parent="1" edge="1">
          <mxGeometry width="50" height="50" relative="1" as="geometry">
            <mxPoint x="664.5" y="457" as="sourcePoint" />
            <mxPoint x="664.5" y="477" as="targetPoint" />
          </mxGeometry>
        </mxCell>
        <mxCell id="ZJoX1B9LX1jRKsgwEXMT-53" value="" style="endArrow=classic;html=1;exitX=1;exitY=0.5;exitDx=0;exitDy=0;exitPerimeter=0;" parent="1" edge="1">
          <mxGeometry width="50" height="50" relative="1" as="geometry">
            <mxPoint x="729.5" y="457" as="sourcePoint" />
            <mxPoint x="729.5" y="477" as="targetPoint" />
          </mxGeometry>
        </mxCell>
        <mxCell id="ZJoX1B9LX1jRKsgwEXMT-54" value="" style="shape=line;html=1;strokeWidth=6;direction=south;rotation=90;" parent="1" vertex="1">
          <mxGeometry x="695" y="360" width="10" height="87" as="geometry" />
        </mxCell>
        <mxCell id="ZJoX1B9LX1jRKsgwEXMT-55" value="" style="endArrow=classic;html=1;" parent="1" source="ZJoX1B9LX1jRKsgwEXMT-41" edge="1">
          <mxGeometry width="50" height="50" relative="1" as="geometry">
            <mxPoint x="400" y="580" as="sourcePoint" />
            <mxPoint x="120" y="600" as="targetPoint" />
            <Array as="points">
              <mxPoint x="700" y="500" />
              <mxPoint x="120" y="500" />
            </Array>
          </mxGeometry>
        </mxCell>
        <mxCell id="ZJoX1B9LX1jRKsgwEXMT-56" value="" style="shape=line;html=1;strokeWidth=6;direction=south;rotation=90;" parent="1" vertex="1">
          <mxGeometry x="650" y="310" width="10" height="87" as="geometry" />
        </mxCell>
        <mxCell id="ZJoX1B9LX1jRKsgwEXMT-64" value="" style="shape=line;html=1;strokeWidth=6;direction=south;rotation=90;" parent="1" vertex="1">
          <mxGeometry x="247" y="390" width="10" height="430" as="geometry" />
        </mxCell>
        <mxCell id="ZJoX1B9LX1jRKsgwEXMT-65" value="" style="endArrow=classic;html=1;exitX=1;exitY=0.5;exitDx=0;exitDy=0;exitPerimeter=0;" parent="1" edge="1">
          <mxGeometry width="50" height="50" relative="1" as="geometry">
            <mxPoint x="200" y="605" as="sourcePoint" />
            <mxPoint x="200" y="625" as="targetPoint" />
          </mxGeometry>
        </mxCell>
        <mxCell id="ZJoX1B9LX1jRKsgwEXMT-66" value="" style="ellipse;html=1;shape=endState;fillColor=#000000;strokeColor=#ff0000;" parent="1" vertex="1">
          <mxGeometry x="187" y="630" width="30" height="30" as="geometry" />
        </mxCell>
        <mxCell id="ZJoX1B9LX1jRKsgwEXMT-68" value="" style="endArrow=none;html=1;entryX=0.708;entryY=-0.047;entryDx=0;entryDy=0;entryPerimeter=0;" parent="1" edge="1" target="ZJoX1B9LX1jRKsgwEXMT-70">
          <mxGeometry width="50" height="50" relative="1" as="geometry">
            <mxPoint x="560" y="681" as="sourcePoint" />
            <mxPoint x="560" y="40" as="targetPoint" />
          </mxGeometry>
        </mxCell>
        <mxCell id="fzWcjzewpMbq90AdFt76-2" value="Transport&lt;br&gt;Number" style="ellipse;whiteSpace=wrap;html=1;strokeColor=#000000;" vertex="1" parent="1">
          <mxGeometry x="353" y="273" width="70" height="37" as="geometry" />
        </mxCell>
        <mxCell id="fzWcjzewpMbq90AdFt76-3" value="" style="endArrow=classic;html=1;exitX=1;exitY=0.5;exitDx=0;exitDy=0;exitPerimeter=0;" edge="1" parent="1">
          <mxGeometry width="50" height="50" relative="1" as="geometry">
            <mxPoint x="387.5" y="310" as="sourcePoint" />
            <mxPoint x="387.5" y="330" as="targetPoint" />
          </mxGeometry>
        </mxCell>
        <mxCell id="fzWcjzewpMbq90AdFt76-6" value="" style="endArrow=classic;html=1;exitX=1;exitY=0.5;exitDx=0;exitDy=0;exitPerimeter=0;" edge="1" parent="1">
          <mxGeometry width="50" height="50" relative="1" as="geometry">
            <mxPoint x="391.5" y="257" as="sourcePoint" />
            <mxPoint x="391.5" y="277" as="targetPoint" />
          </mxGeometry>
        </mxCell>
      </root>
    </mxGraphModel>
  </diagram>
</mxfile>
